<svg width="107" height="14" viewBox="0 0 202 28" fill="none" xmlns="http://www.w3.org/2000/svg">
    <path d="M0.811406 -1.90735e-06H12.5714L24.2514 14V-1.90735e-06H26.6514V28H17.2514L3.25141 9.36V28H0.811406V-1.90735e-06ZM28.8973 -1.90735e-06H41.9373V28H28.8973V-1.90735e-06ZM44.2098 -1.90735e-06H70.9698C72.2765 -1.90735e-06 73.4765 0.333332 74.5698 1C75.6898 1.64 76.5698 2.52 77.2098 3.64C77.8765 4.73333 78.2098 5.93333 78.2098 7.24C78.2098 8.97333 77.6765 10.5467 76.6098 11.96C75.5432 13.3733 74.1965 14.28 72.5698 14.68C74.0098 15.08 75.1832 15.84 76.0898 16.96C77.0232 18.08 77.4898 19.3467 77.4898 20.76V28H64.0898V19.32C64.0898 18.4667 63.9298 17.8 63.6098 17.32C63.2365 16.76 62.8098 16.3467 62.3298 16.08C61.7965 15.7867 61.1965 15.5733 60.5298 15.44C59.8365 15.3067 59.1832 15.2267 58.5698 15.2L57.4898 15.16V28H44.2098V-1.90735e-06ZM58.8898 12.84C59.8498 12.84 60.7298 12.6133 61.5298 12.16C62.3565 11.68 62.9965 11.04 63.4498 10.24C63.9298 9.41333 64.1698 8.53333 64.1698 7.6C64.1698 6.64 63.9298 5.76 63.4498 4.96C62.9965 4.13333 62.3565 3.48 61.5298 3C60.7298 2.52 59.8498 2.28 58.8898 2.28H57.4898V12.88L58.8898 12.84ZM78.1002 -1.90735e-06H91.0602L100.22 20.64L107.9 -1.90735e-06H110.98L100.42 28H90.5002L78.1002 -1.90735e-06ZM114.135 -1.90735e-06H125.815L138.215 28H123.095L118.895 18.72H110.095L106.495 28H103.575L114.135 -1.90735e-06ZM117.775 16.28L114.135 8.16L110.975 16.28H117.775ZM139.796 -1.90735e-06H151.556L163.236 14V-1.90735e-06H165.636V28H156.236L142.236 9.36V28H139.796V-1.90735e-06ZM177.495 -1.90735e-06H189.175L201.575 28H186.455L182.255 18.72H173.455L169.855 28H166.935L177.495 -1.90735e-06ZM181.135 16.28L177.495 8.16L174.335 16.28H181.135Z" fill="white"/>
</svg>
